# xmcd
#
# Track frame offsets: 
#        150
#        19080
#        34861
#        49029
#        64506
#        85617
#        100224
#        112076
#        121230
#        134925
#        151109
#
# Disc length: 2219 seconds
#
# Revision: 0
# Processed by: cddbd v1.5.2PL0 Copyright (c) Steve Scherf et al.
# Submitted via: ExactAudioCopy v1.0b3
#
DISCID=8c08a90b
DTITLE=Abbie Gardner - Hope
DYEAR=2011
DGENRE=Folk
TTITLE0=Break it Slow
TTITLE1=Liar
TTITLE2=Comes Love
TTITLE3=I Can't Be Good for You
TTITLE4=Hope
TTITLE5=It's You
TTITLE6=Bang Bang
TTITLE7=Do It
TTITLE8=Nellie
TTITLE9=Walkin' Cane
TTITLE10=Too Soon
EXTD=
EXTT0=
EXTT1=
EXTT2=
EXTT3=
EXTT4=
EXTT5=
EXTT6=
EXTT7=
EXTT8=
EXTT9=
EXTT10=
PLAYORDER=
